




<svg viewBox="0 0 24 24" width = "24" height = "24" fill="none" xmlns="http://www.w3.org/2000/svg"><path fill-rule="evenodd" clip-rule="evenodd" d="M19.65 12C19.65 16.225 16.225 19.65 12 19.65C7.77502 19.65 4.35 16.225 4.35 12C4.35 7.77502 7.77502 4.35 12 4.35C16.225 4.35 19.65 7.77502 19.65 12ZM12 3H12H20.28C20.5394 3 20.776 3.14873 20.8884 3.3826C21.0008 3.61646 20.9692 3.89405 20.8071 4.09667L19.0052 6.34905C20.2529 7.89381 21 9.85965 21 12C21 16.9706 16.9706 21 12 21C7.02944 21 3 16.9706 3 12C3 7.02945 7.02943 3.00002 12 3ZM18.0709 5.35582C17.6613 4.98138 17.217 4.64431 16.7434 4.35H18.8756L18.0709 5.35582ZM8 13.75C7.58579 13.75 7.25 13.4142 7.25 13V10C7.25 9.58579 7.58579 9.25 8 9.25C8.41421 9.25 8.75 9.58579 8.75 10V13C8.75 13.4142 8.41421 13.75 8 13.75ZM11.25 13C11.25 13.4142 11.5858 13.75 12 13.75C12.4142 13.75 12.75 13.4142 12.75 13V10C12.75 9.58579 12.4142 9.25 12 9.25C11.5858 9.25 11.25 9.58579 11.25 10V13Z" fill="#D5D5D5"></path></svg>