<svg viewBox="0 0 24 24" width="20" height="20" fill="none" xmlns="http://www.w3.org/2000/svg"><mask id="mask0_10569_37455" style="mask-type:alpha" maskUnits="userSpaceOnUse" x="0" y="0" width="24" height="24"><path d="M23.5 23.5L0.5 23.5L0.5 0.5L23.5 0.5L23.5 23.5Z" fill="#C4C4C4" stroke="#707070"></path></mask><g mask="url(#mask0_10569_37455)"><path fill-rule="evenodd" clip-rule="evenodd" d="M3.29259 3.32508C4.07991 2.45783 5.27859 2 6.87821 2H16.6218C18.2214 2 19.4201 2.45783 20.2074 3.32508C20.9827 4.17911 21.25 5.31132 21.25 6.43902V20.5H22C22.4142 20.5 22.75 20.8358 22.75 21.25C22.75 21.6642 22.4142 22 22 22H20.5192H2.98077H2C1.58579 22 1.25 21.6642 1.25 21.25C1.25 20.8358 1.58579 20.5 2 20.5H2.25V6.43902C2.25 5.31132 2.51726 4.17911 3.29259 3.32508ZM19.7885 6.43902V20.5H13V3.46341H16.6218C17.9453 3.46341 18.6953 3.8351 19.1259 4.30943C19.5685 4.79699 19.7885 5.51843 19.7885 6.43902ZM11.5 3.46341V20.5H3.71154V6.43902C3.71154 5.51843 3.93145 4.79699 4.37408 4.30943C4.8047 3.8351 5.55474 3.46341 6.87821 3.46341H11.5ZM5.5 14.5C5.08579 14.5 4.75 14.8358 4.75 15.25C4.75 15.6642 5.08579 16 5.5 16H8.5C8.91421 16 9.25 15.6642 9.25 15.25C9.25 14.8358 8.91421 14.5 8.5 14.5H5.5ZM13.75 15.25C13.75 14.8358 14.0858 14.5 14.5 14.5H17.5C17.9142 14.5 18.25 14.8358 18.25 15.25C18.25 15.6642 17.9142 16 17.5 16H14.5C14.0858 16 13.75 15.6642 13.75 15.25ZM6 8.5C5.58579 8.5 5.25 8.83579 5.25 9.25C5.25 9.66421 5.58579 10 6 10H9C9.41421 10 9.75 9.66421 9.75 9.25C9.75 8.83579 9.41421 8.5 9 8.5H6ZM14.25 9.25C14.25 8.83579 14.5858 8.5 15 8.5H18C18.4142 8.5 18.75 8.83579 18.75 9.25C18.75 9.66421 18.4142 10 18 10H15C14.5858 10 14.25 9.66421 14.25 9.25Z" fill="#707070"></path></g></svg>