<svg viewBox="0 0 24 24" width="24" height="24" fill="none" xmlns="http://www.w3.org/2000/svg"><rect width="24" height="24" fill="white"></rect><path d="M12.558 19.9191C12.252 20.027 11.748 20.027 11.442 19.9191C8.832 19.0292 3 15.3169 3 9.02472C3 6.24719 5.241 4 8.004 4C9.642 4 11.091 4.79101 12 6.01348C12.909 4.79101 14.367 4 15.996 4C18.759 4 21 6.24719 21 9.02472C21 15.3169 15.168 19.0292 12.558 19.9191Z" fill="url(#paint0_linear_9787_20151)" stroke="url(#paint1_linear_9787_20151)" stroke-width="1.5" stroke-linecap="round" stroke-linejoin="round"></path><g filter="url(#filter0_f_9787_20151)"><path d="M12.434 17.9393C12.196 18.0202 11.804 18.0202 11.566 17.9393C9.536 17.2719 5 14.4876 5 9.76854C5 7.68539 6.743 6 8.892 6C10.166 6 11.293 6.59326 12 7.51011C12.707 6.59326 13.841 6 15.108 6C17.257 6 19 7.68539 19 9.76854C19 14.4876 14.464 17.2719 12.434 17.9393Z" fill="url(#paint2_linear_9787_20151)"></path><path d="M12.434 17.9393C12.196 18.0202 11.804 18.0202 11.566 17.9393C9.536 17.2719 5 14.4876 5 9.76854C5 7.68539 6.743 6 8.892 6C10.166 6 11.293 6.59326 12 7.51011C12.707 6.59326 13.841 6 15.108 6C17.257 6 19 7.68539 19 9.76854C19 14.4876 14.464 17.2719 12.434 17.9393Z" stroke="url(#paint3_linear_9787_20151)" stroke-width="1.5" stroke-linecap="round" stroke-linejoin="round"></path></g><path d="M8 12H9.5323C9.57319 12 9.60996 11.9751 9.62514 11.9371L11.0751 8.31233C11.112 8.21998 11.2465 8.23233 11.266 8.32986L12.734 15.6701C12.7535 15.7677 12.888 15.78 12.9249 15.6877L14.3749 12.0629C14.39 12.0249 14.4268 12 14.4677 12H16" stroke="url(#paint4_linear_9787_20151)" stroke-width="1.5" stroke-linecap="round"></path><defs><filter id="filter0_f_9787_20151" x="0.25" y="1.25" width="23.5" height="21.5" filterUnits="userSpaceOnUse" color-interpolation-filters="sRGB"><feFlood flood-opacity="0" result="BackgroundImageFix"></feFlood><feBlend mode="normal" in="SourceGraphic" in2="BackgroundImageFix" result="shape"></feBlend><feGaussianBlur stdDeviation="2" result="effect1_foregroundBlur_9787_20151"></feGaussianBlur></filter><linearGradient id="paint0_linear_9787_20151" x1="12" y1="4" x2="12" y2="20" gradientUnits="userSpaceOnUse"><stop stop-color="#F5B8B6"></stop><stop offset="1" stop-color="#E5534C"></stop></linearGradient><linearGradient id="paint1_linear_9787_20151" x1="12" y1="4" x2="12" y2="20" gradientUnits="userSpaceOnUse"><stop stop-color="#F5B8B6"></stop><stop offset="1" stop-color="#E5534C"></stop></linearGradient><linearGradient id="paint2_linear_9787_20151" x1="12" y1="6" x2="12" y2="18" gradientUnits="userSpaceOnUse"><stop stop-color="#F5B8B6"></stop><stop offset="1" stop-color="#F3A7A7"></stop></linearGradient><linearGradient id="paint3_linear_9787_20151" x1="12" y1="6" x2="12" y2="18" gradientUnits="userSpaceOnUse"><stop stop-color="#F5B8B6"></stop><stop offset="1" stop-color="#F3A7A7"></stop></linearGradient><linearGradient id="paint4_linear_9787_20151" x1="7" y1="7" x2="4.84987" y2="13.0128" gradientUnits="userSpaceOnUse"><stop stop-color="#FBE099"></stop><stop offset="1" stop-color="#F4B75B"></stop></linearGradient></defs></svg>