<svg viewBox="0 0 24 24" width = "24" height = "24" fill="none" xmlns="http://www.w3.org/2000/svg"><rect width="24" height="24" fill="white"></rect><path d="M9.52262 3.95429C10.9754 2.80826 13.0246 2.80826 14.4774 3.95429L16.9443 5.90031L19.9635 7.97143C21.2118 8.82773 21.8698 10.3153 21.6635 11.815L21.1127 15.8197L20.5925 18.7087C20.2496 20.6139 18.5916 22 16.6558 22H12H7.35318C5.42197 22 3.76652 20.6202 3.41862 18.7206L2.88733 15.8197L2.33651 11.815C2.13024 10.3153 2.78821 8.82773 4.0365 7.97143L7.05573 5.90031L9.52262 3.95429Z" fill="url(#paint0_linear_959_6121)"></path><g filter="url(#filter0_f_959_6121)"><path d="M9.52262 5.95429C10.9754 4.80826 13.0246 4.80826 14.4774 5.95429L15.9554 7.12025L17.9635 8.49775C19.2118 9.35405 19.8698 10.8417 19.6635 12.3413L19.2901 15.0557L18.9925 16.7087C18.6496 18.6139 16.9916 20 15.0558 20H12H8.94933C7.01812 20 5.36268 18.6202 5.01477 16.7206L4.70986 15.0557L4.33651 12.3413C4.13024 10.8417 4.78821 9.35405 6.0365 8.49775L8.04458 7.12025L9.52262 5.95429Z" fill="url(#paint1_linear_959_6121)"></path></g><path d="M12 18L12 15" stroke="url(#paint2_linear_959_6121)" stroke-width="1.5" stroke-linecap="round" stroke-linejoin="round"></path><defs><filter id="filter0_f_959_6121" x="0.298828" y="1.09477" width="23.4023" height="22.9052" filterUnits="userSpaceOnUse" color-interpolation-filters="sRGB"><feFlood flood-opacity="0" result="BackgroundImageFix"></feFlood><feBlend mode="normal" in="SourceGraphic" in2="BackgroundImageFix" result="shape"></feBlend><feGaussianBlur stdDeviation="2" result="effect1_foregroundBlur_959_6121"></feGaussianBlur></filter><linearGradient id="paint0_linear_959_6121" x1="12" y1="2" x2="12" y2="22" gradientUnits="userSpaceOnUse"><stop stop-color="#9EE9F0"></stop><stop offset="1" stop-color="#59C9DD"></stop></linearGradient><linearGradient id="paint1_linear_959_6121" x1="4" y1="4" x2="19.9667" y2="18.9688" gradientUnits="userSpaceOnUse"><stop stop-color="#92E8F2"></stop><stop offset="1" stop-color="#88D6E2"></stop></linearGradient><linearGradient id="paint2_linear_959_6121" x1="11" y1="14" x2="9.32" y2="16.76" gradientUnits="userSpaceOnUse"><stop stop-color="#FBE099"></stop><stop offset="1" stop-color="#F4B75B"></stop></linearGradient></defs></svg>
