









<svg viewBox="0 0 24 24" width= "24" height = "24" fill="none" xmlns="http://www.w3.org/2000/svg"><path d="M16.4798 6.48915L16.4994 6.50464L16.52 6.51878L19.5392 8.5899C20.5535 9.28565 21.0881 10.4943 20.9205 11.7128L20.3718 15.7021L19.8544 18.5759C19.5757 20.1238 18.2286 21.25 16.6558 21.25H12H7.35318C5.78407 21.25 4.43902 20.1289 4.15635 18.5855L3.62806 15.701L3.07951 11.7128C2.91192 10.4943 3.44652 9.28565 4.46076 8.5899L7.47998 6.51878L7.5006 6.50464L7.52024 6.48915L9.98713 4.54313C11.1675 3.61198 12.8325 3.61198 14.0129 4.54313L16.4798 6.48915Z" stroke="#B6B6B6" stroke-width="1.5"></path><path d="M12 19L12 16" stroke="#D5D5D5" stroke-width="1.5" stroke-linecap="round" stroke-linejoin="round"></path></svg>