<svg viewBox="0 0 24 24" width = "24" height="24" fill="none" xmlns="http://www.w3.org/2000/svg"><rect width="24" height="24" fill="white"></rect><circle cx="12" cy="12" r="9" fill="url(#paint0_linear_9787_17581)"></circle><path d="M14 3H18.7962C19.6554 3 20.1146 4.01192 19.5488 4.6585L18.375 6L14 3Z" fill="#F6B572"></path><path fill-rule="evenodd" clip-rule="evenodd" d="M19.65 12C19.65 16.225 16.225 19.65 12 19.65C7.77502 19.65 4.35 16.225 4.35 12C4.35 7.77502 7.77502 4.35 12 4.35C16.225 4.35 19.65 7.77502 19.65 12ZM12 3H20.28C20.5395 3 20.776 3.14873 20.8884 3.3826C21.0008 3.61646 20.9692 3.89405 20.8071 4.09667L19.0052 6.34906C20.2529 7.89382 21 9.85966 21 12C21 16.9706 16.9706 21 12 21C7.02944 21 3 16.9706 3 12C3 7.02944 7.02944 3 12 3ZM16.7434 4.35H18.8756L18.0709 5.35583C17.6613 4.98139 17.217 4.64431 16.7434 4.35Z" fill="url(#paint1_linear_9787_17581)"></path><g filter="url(#filter0_f_9787_17581)"><circle cx="12" cy="12" r="7" fill="url(#paint2_linear_9787_17581)"></circle></g><path d="M17 13C17 15.2091 15.2091 17 13 17" stroke="url(#paint3_linear_9787_17581)" stroke-width="1.5" stroke-linecap="round"></path><defs><filter id="filter0_f_9787_17581" x="1" y="1" width="22" height="22" filterUnits="userSpaceOnUse" color-interpolation-filters="sRGB"><feFlood flood-opacity="0" result="BackgroundImageFix"></feFlood><feBlend mode="normal" in="SourceGraphic" in2="BackgroundImageFix" result="shape"></feBlend><feGaussianBlur stdDeviation="2" result="effect1_foregroundBlur_9787_17581"></feGaussianBlur></filter><linearGradient id="paint0_linear_9787_17581" x1="3.45" y1="3" x2="20.55" y2="21" gradientUnits="userSpaceOnUse"><stop stop-color="#FADE9C"></stop><stop offset="1" stop-color="#F08745"></stop></linearGradient><linearGradient id="paint1_linear_9787_17581" x1="3.45" y1="3" x2="20.55" y2="21" gradientUnits="userSpaceOnUse"><stop stop-color="#FADE9C"></stop><stop offset="1" stop-color="#F08745"></stop></linearGradient><linearGradient id="paint2_linear_9787_17581" x1="12" y1="5" x2="12" y2="19" gradientUnits="userSpaceOnUse"><stop stop-color="#FADA8E"></stop><stop offset="1" stop-color="#F5BE87"></stop></linearGradient><linearGradient id="paint3_linear_9787_17581" x1="19.2024" y1="15.2828" x2="16.8912" y2="12.411" gradientUnits="userSpaceOnUse"><stop stop-color="#F4B75B"></stop><stop offset="1" stop-color="#FBE099"></stop></linearGradient></defs></svg>
