 <svg
                      viewBox="0 0 24 24"
                      fill="none"
                      width="20" height="20"
                      xmlns="http://www.w3.org/2000/svg"
                    >
                      <mask
                        id="mask0_10569_37464"
                        style="mask-type:alpha"
                        maskUnits="userSpaceOnUse"
                        x="0"
                        y="0"
                        width="32"
                        height="32"
                      >
                        <path
                          d="M31.5 31.5L0.5 31.5L0.5 0.5L31.5 0.5L31.5 31.5Z"
                          fill="#C4C4C4"
                          stroke="#707070"
                        ></path>
                      </mask>
                      <g mask="url(#mask0_10569_37464)">
                        <path
                          fill-rule="evenodd"
                          clip-rule="evenodd"
                          d="M2 2C1.58579 2 1.25 2.3444 1.25 2.76923V18.1538C1.25 18.5787 1.58579 18.9231 2 18.9231H9C9.59674 18.9231 10.169 19.1662 10.591 19.599C11.0129 20.0318 11.25 20.6187 11.25 21.2308C11.25 21.6556 11.5858 22 12 22C12.4142 22 12.75 21.6556 12.75 21.2308C12.75 20.6187 12.9871 20.0318 13.409 19.599C13.831 19.1662 14.4033 18.9231 15 18.9231H22C22.4142 18.9231 22.75 18.5787 22.75 18.1538V2.76923C22.75 2.3444 22.4142 2 22 2H16C14.7402 2 13.532 2.51328 12.6412 3.42692C12.3975 3.67688 12.183 3.95122 12 4.24434C11.817 3.95122 11.6025 3.67688 11.3588 3.42692C10.468 2.51328 9.25978 2 8 2H2ZM12.75 18.1538C13.3953 17.6574 14.1839 17.3846 15 17.3846H21.25V3.53846H16C15.138 3.53846 14.3114 3.88965 13.7019 4.51477C13.0924 5.13989 12.75 5.98774 12.75 6.8718V18.1538ZM11.25 18.1538V6.8718C11.25 5.98774 10.9076 5.13989 10.2981 4.51477C9.6886 3.88965 8.86195 3.53846 8 3.53846H2.75V17.3846H9C9.81606 17.3846 10.6047 17.6574 11.25 18.1538Z"
                          fill="#707070"
                        ></path>
                      </g>
                    </svg>